# xmcd
#
# Track frame offsets: 
#        150
#        12335
#        27035
#        45102
#        62355
#        86315
#        103185
#        126042
#        148402
#        171622
#        187447
#        202555
#
# Disc length: 3029 seconds
#
# Revision: 12
# Processed by: cddbd v1.5.2PL0 Copyright (c) Steve Scherf et al.
# Submitted via: ExactAudioCopyFreeDBPlugin 1.0
#
DISCID=9d0bd30c
DTITLE=Hole - Celebrity Skin
DYEAR=1998
DGENRE=Rock
TTITLE0=Celebrity Skin
TTITLE1=Awful
TTITLE2=Hit So Hard
TTITLE3=Malibu
TTITLE4=Reasons To Be Beautiful
TTITLE5=Dying
TTITLE6=Use Once and Destroy
TTITLE7=Northern Star
TTITLE8=Boys On The Radio
TTITLE9=Heaven Tonight
TTITLE10=Playing Your Song
TTITLE11=Petals
EXTD=YEAR 1998
EXTT0=
EXTT1=
EXTT2=
EXTT3=
EXTT4=
EXTT5=
EXTT6=
EXTT7=
EXTT8=
EXTT9=
EXTT10=
EXTT11=
PLAYORDER=
